<?xml version="1.0" standalone="no"?>
<!DOCTYPE svg PUBLIC "-//W3C//DTD SVG 20010904//EN"
 "http://www.w3.org/TR/2001/REC-SVG-20010904/DTD/svg10.dtd">
<svg version="1.0" xmlns="http://www.w3.org/2000/svg"
 width="360.000000pt" height="360.000000pt" viewBox="0 0 360.000000 360.000000"
 preserveAspectRatio="xMidYMid meet">
<metadata>
Created by potrace 1.14, written by Peter Selinger 2001-2017
</metadata>
<g transform="translate(0.000000,360.000000) scale(0.100000,-0.100000)"
fill="#000000" stroke="none">
<path d="M1678 3584 c-2 -2 -39 -6 -82 -9 -43 -3 -82 -7 -86 -10 -4 -3 -23 -7
-41 -10 -153 -21 -378 -105 -551 -206 -214 -124 -440 -334 -572 -531 -107
-161 -208 -364 -242 -488 -2 -8 -13 -52 -25 -97 -21 -80 -23 -83 -51 -83 -23
0 -29 -4 -26 -17 2 -10 12 -18 23 -18 18 0 20 -6 15 -70 -13 -191 -4 -437 21
-563 13 -67 9 -79 -30 -76 -24 2 -31 -2 -31 -16 0 -15 9 -20 42 -22 l42 -3 36
-105 c66 -187 156 -355 279 -515 44 -57 199 -218 252 -260 92 -74 122 -96 186
-138 79 -51 221 -125 299 -155 27 -10 58 -23 69 -27 11 -5 22 -9 25 -10 178
-53 222 -63 365 -82 66 -9 323 -9 405 0 119 12 346 68 435 107 11 5 43 19 70
30 284 122 522 309 729 571 82 105 184 295 240 449 46 125 55 141 74 139 39
-4 52 2 52 22 0 17 -5 20 -30 17 -16 -1 -30 -1 -31 2 -1 3 2 28 6 55 31 198
37 344 22 548 -7 96 -5 103 25 98 4 0 6 8 5 18 -1 13 -7 18 -19 16 -18 -4 -37
26 -43 65 -11 80 -87 284 -154 418 -118 232 -328 474 -552 634 -97 70 -302
178 -423 224 -84 31 -231 69 -305 79 -30 4 -63 9 -75 12 -25 5 -343 12 -348 7z
m367 -169 c247 -42 504 -146 695 -282 134 -96 311 -277 399 -408 70 -104 171
-298 171 -327 0 -8 4 -18 9 -23 21 -23 76 -243 89 -355 9 -85 9 -351 0 -417
-16 -109 -56 -257 -97 -360 -22 -57 -84 -186 -104 -217 -98 -157 -243 -335
-258 -319 -4 5 -10 31 -13 58 -3 28 -11 66 -17 85 -14 45 -18 58 -20 68 -6 24
-65 122 -92 153 -84 94 -169 139 -451 234 -108 37 -227 84 -215 85 4 0 3 18
-1 40 -6 34 -2 49 26 103 27 52 37 88 53 199 10 75 24 144 29 155 14 25 9 58
-18 117 l-22 49 20 36 c16 29 19 53 17 127 -1 77 -5 98 -27 136 l-25 46 43 31
c72 50 129 156 118 219 -8 47 -26 71 -71 93 -36 17 -55 20 -104 16 l-59 -6 0
35 c0 41 -19 81 -52 109 -25 21 -64 45 -74 45 -3 0 -37 -31 -74 -68 -38 -38
-91 -80 -118 -94 -45 -23 -61 -26 -142 -24 l-92 2 -30 -46 c-36 -55 -86 -91
-156 -114 -29 -10 -66 -29 -81 -42 -53 -44 -55 -68 -27 -324 18 -162 18 -177
6 -200 -17 -31 -14 -97 4 -142 16 -37 83 -111 95 -104 3 2 15 -2 25 -9 20 -15
23 -29 31 -150 2 -44 7 -117 10 -162 l5 -81 -68 -25 c-154 -58 -298 -109 -319
-113 -48 -9 -200 -95 -242 -136 -85 -84 -137 -188 -161 -325 -7 -40 -15 -73
-18 -73 -10 0 -85 87 -143 165 -33 44 -63 85 -67 90 -26 33 -136 276 -166 365
-31 96 -42 140 -64 265 -4 22 -7 117 -7 211 0 196 1 199 87 237 57 25 60 32
73 150 13 121 12 129 -13 181 -14 28 -25 58 -23 66 1 8 25 60 52 115 169 342
518 649 886 779 94 34 200 64 249 71 22 3 60 9 85 14 49 10 391 7 454 -4z m63
-1024 c60 -37 82 -87 82 -185 0 -61 -5 -87 -21 -116 l-21 -37 28 -54 c26 -52
32 -92 14 -114 -8 -10 -12 -37 -25 -150 -5 -43 -13 -96 -19 -130 -4 -24 -52
-83 -85 -105 -38 -25 -149 -37 -182 -19 -14 7 -21 4 -33 -13 -15 -21 -15 -23
4 -30 38 -14 135 -15 185 -3 27 8 51 13 52 12 2 -3 6 -188 4 -205 -1 -14 -67
-47 -111 -56 -14 -3 -38 -8 -55 -12 -16 -5 -77 -8 -135 -8 -84 -1 -120 4 -177
23 -100 32 -106 38 -109 102 -3 81 -14 274 -20 359 -3 41 -7 93 -7 115 -2 37
-5 40 -44 55 -98 36 -143 135 -95 210 24 38 43 49 83 50 25 0 44 -8 63 -25 14
-13 26 -23 27 -22 0 1 2 12 5 24 2 12 15 47 28 77 14 31 23 56 20 56 -3 0 2 7
10 16 21 21 20 42 -5 109 -12 31 -18 59 -15 62 3 3 31 1 62 -6 112 -22 183
-12 303 42 47 20 61 23 100 14 25 -5 65 -21 89 -36z"/>
<path d="M1792 3302 c-22 -3 -22 -5 -20 -145 l3 -142 27 -3 26 -3 1 145 c1 79
-2 146 -6 148 -4 2 -18 2 -31 0z"/>
<path d="M1023 3094 c-21 -15 -22 -17 -5 -42 9 -15 19 -29 23 -32 3 -3 23 -32
44 -65 21 -33 42 -63 47 -66 5 -3 8 -10 6 -14 -1 -4 4 -12 13 -18 13 -8 21 -6
34 6 15 16 12 24 -59 132 -42 63 -77 115 -79 114 -1 0 -12 -7 -24 -15z"/>
<path d="M2550 3098 c-6 -7 -39 -60 -75 -117 -54 -88 -62 -106 -50 -118 8 -7
20 -12 27 -11 13 3 68 82 68 98 0 4 3 10 8 12 4 2 24 28 44 60 37 57 37 61 1
82 -6 3 -17 1 -23 -6z"/>
<path d="M496 2536 c-15 -24 -15 -26 13 -45 16 -12 32 -21 35 -21 3 0 44 -25
91 -55 76 -49 86 -53 100 -39 8 9 15 21 15 27 0 7 -39 36 -88 64 -48 29 -101
62 -118 73 l-31 20 -17 -24z"/>
<path d="M3049 2537 c-19 -13 -71 -45 -115 -73 -80 -49 -81 -51 -70 -77 l11
-26 105 62 c162 97 151 87 133 114 -19 28 -22 28 -64 0z"/>
<path d="M294 1804 c-3 -13 -4 -27 -1 -31 4 -7 196 -9 265 -4 6 1 12 14 12 30
l0 28 -135 0 c-132 -1 -136 -1 -141 -23z"/>
<path d="M3037 1823 c-12 -11 -8 -51 6 -56 6 -2 67 -4 135 -4 111 0 124 2 133
19 21 40 -3 48 -141 48 -69 0 -130 -3 -133 -7z"/>
<path d="M670 1220 c-25 -16 -50 -33 -56 -37 -19 -15 -49 -32 -82 -49 -18 -9
-35 -20 -38 -25 -8 -14 6 -49 19 -49 16 0 220 127 231 144 7 10 5 20 -3 30
-17 20 -17 20 -71 -14z"/>
<path d="M2851 1228 c-15 -24 -6 -36 46 -63 38 -19 124 -75 133 -86 3 -3 15
-11 28 -18 18 -10 27 -10 38 0 29 24 12 45 -92 109 -130 81 -137 83 -153 58z"/>
<path d="M1966 1702 c-8 -14 13 -28 55 -36 29 -5 38 -3 43 10 4 9 5 18 3 20
-10 10 -95 15 -101 6z"/>
<path d="M165 3178 c-5 -12 -21 -28 -35 -35 -24 -12 -24 -13 -3 -13 14 0 28
-10 37 -27 13 -24 22 -19 17 9 0 4 11 11 25 14 l27 7 -24 13 c-13 7 -26 22
-29 34 -5 21 -5 21 -15 -2z"/>
<path d="M3427 3193 c-4 -3 -7 -14 -7 -24 0 -9 -10 -19 -22 -23 l-23 -6 23
-16 c13 -9 27 -26 32 -38 8 -20 9 -19 9 6 1 20 8 29 28 35 l28 10 -28 6 c-24
7 -33 22 -28 50 1 9 -4 9 -12 0z"/>
<path d="M156 629 c-4 -15 -19 -30 -34 -36 l-27 -11 26 -1 c18 -1 28 -8 32
-21 6 -23 27 -27 27 -6 0 8 12 18 27 23 l28 10 -27 6 c-16 4 -30 17 -36 34
l-10 28 -6 -26z"/>
<path d="M3001 229 c-2 -25 -25 -50 -49 -52 -32 -2 -27 -17 7 -17 21 0 30 -6
35 -22 l7 -23 11 21 c5 12 24 25 42 29 30 8 30 8 6 12 -33 6 -48 19 -53 46 -2
12 -5 15 -6 6z"/>
<path d="M3375 56 c-15 -15 -22 -31 -19 -40 9 -22 24 -20 24 4 0 12 9 22 24
26 32 8 49 -3 43 -27 -3 -12 0 -19 9 -19 15 0 19 27 6 47 -4 6 -20 17 -35 22
-24 9 -31 8 -52 -13z"/>
</g>
</svg>
